<?xml version="1.0" encoding="UTF-8" standalone="no"?>
<!-- Created with Inkscape (http://www.inkscape.org/) -->

<svg
   xmlns:dc="http://purl.org/dc/elements/1.1/"
   xmlns:cc="http://creativecommons.org/ns#"
   xmlns:rdf="http://www.w3.org/1999/02/22-rdf-syntax-ns#"
   xmlns:svg="http://www.w3.org/2000/svg"
   xmlns="http://www.w3.org/2000/svg"
   xmlns:sodipodi="http://sodipodi.sourceforge.net/DTD/sodipodi-0.dtd"
   xmlns:inkscape="http://www.inkscape.org/namespaces/inkscape"
   width="210mm"
   height="297mm"
   viewBox="0 0 210 297"
   version="1.1"
   id="svg1735"
   inkscape:version="0.92.4 (5da689c313, 2019-01-14)"
   sodipodi:docname="feldrise_no_border.svg">
  <defs
     id="defs1729" />
  <sodipodi:namedview
     id="base"
     pagecolor="#ffffff"
     bordercolor="#666666"
     borderopacity="1.0"
     inkscape:pageopacity="0.0"
     inkscape:pageshadow="2"
     inkscape:zoom="0.67485556"
     inkscape:cx="-256.50108"
     inkscape:cy="859.77502"
     inkscape:document-units="px"
     inkscape:current-layer="layer1"
     showgrid="false"
     showborder="false"
     inkscape:snap-smooth-nodes="true"
     inkscape:snap-midpoints="false"
     inkscape:snap-others="true"
     inkscape:window-width="3711"
     inkscape:window-height="2121"
     inkscape:window-x="116"
     inkscape:window-y="-13"
     inkscape:window-maximized="1"
     inkscape:pagecheckerboard="true" />
  <metadata
     id="metadata1732">
    <rdf:RDF>
      <cc:Work
         rdf:about="">
        <dc:format>image/svg+xml</dc:format>
        <dc:type
           rdf:resource="http://purl.org/dc/dcmitype/StillImage" />
        <dc:title></dc:title>
      </cc:Work>
    </rdf:RDF>
  </metadata>
  <g
     inkscape:label="Layer 1"
     inkscape:groupmode="layer"
     id="layer1">
    <path
       style="color:#000000;font-style:normal;font-variant:normal;font-weight:normal;font-stretch:normal;font-size:medium;line-height:normal;font-family:sans-serif;font-variant-ligatures:normal;font-variant-position:normal;font-variant-caps:normal;font-variant-numeric:normal;font-variant-alternates:normal;font-feature-settings:normal;text-indent:0;text-align:start;text-decoration:none;text-decoration-line:none;text-decoration-style:solid;text-decoration-color:#000000;letter-spacing:normal;word-spacing:normal;text-transform:none;writing-mode:lr-tb;direction:ltr;text-orientation:mixed;dominant-baseline:auto;baseline-shift:baseline;text-anchor:start;white-space:normal;shape-padding:0;clip-rule:nonzero;display:inline;overflow:visible;visibility:visible;opacity:1;isolation:auto;mix-blend-mode:normal;color-interpolation:sRGB;color-interpolation-filters:linearRGB;solid-color:#000000;solid-opacity:1;vector-effect:none;fill:#ffb246;fill-opacity:1;fill-rule:nonzero;stroke:none;stroke-width:17.0623436;stroke-linecap:butt;stroke-linejoin:miter;stroke-miterlimit:4;stroke-dasharray:none;stroke-dashoffset:0;stroke-opacity:1;color-rendering:auto;image-rendering:auto;shape-rendering:auto;text-rendering:auto;enable-background:accumulate"
       d="M 135.46706,51.576223 C 96.305976,51.656351 58.17957,63.732198 26.231709,86.048869 25.920242,90.243008 25.705719,94.44357 25.678711,98.649706 25.750941,171.83404 68.592076,238.1549 135.34587,269.04546 202.19352,238.22409 245.13824,171.88904 245.25422,98.649706 245.21912,94.432036 244.99587,90.220007 244.6749,86.014912 212.73066,63.715586 174.61488,51.652079 135.46706,51.576223 Z M 103.55616,208.1604 h 1.60119 l 1.64498,0.0855 c 0.54825,0.0275 1.09644,0.0717 1.64465,0.12883 0.95218,0.0854 1.83226,0.21432 2.64018,0.38569 0.17312,0.0276 0.33177,0.0571 0.47603,0.0855 0.17313,0.0275 0.34598,0.0716 0.51911,0.12883 l 0.90902,0.25687 0.43299,0.12883 0.77905,0.34275 c 0.17312,0.0571 0.28835,0.11464 0.34607,0.17176 0.14428,0.0571 0.25991,0.12844 0.34647,0.21394 0.0865,0.0571 0.18719,0.11464 0.3026,0.17176 0.23084,0.17138 0.40409,0.31399 0.51951,0.42832 l 0.2165,0.21431 0.17303,0.25688 0.25954,0.47134 0.17343,0.42871 c 0.0577,0.11425 0.10075,0.24268 0.12959,0.3857 0.14426,0.34275 0.18768,0.67148 0.12997,0.98571 v 0.12843 c -0.0288,0.0571 -0.0435,0.14301 -0.0435,0.25727 -0.0865,0.28562 -0.18719,0.49983 -0.3026,0.64267 l -0.12996,0.12882 -0.34648,0.29983 c -0.0577,0.0571 -0.10075,0.0855 -0.1296,0.0855 l -0.12997,0.0855 c -0.11541,0.0571 -0.18763,0.0855 -0.21648,0.0855 -0.0577,-0.0571 -0.11534,-0.10009 -0.17305,-0.12882 -0.0577,-0.0571 -0.12993,-0.11425 -0.21648,-0.17138 -0.63478,-0.4 -1.64471,-0.79971 -3.02969,-1.19972 l -0.95211,-0.29981 -1.73113,-0.42871 -1.08206,-0.25686 c -0.75021,-0.14302 -1.48584,-0.27144 -2.20719,-0.38569 -0.69251,-0.14302 -1.37051,-0.24308 -2.03416,-0.2998 -0.46167,0.94275 -0.99561,2.08534 -1.60156,3.42809 -0.60594,1.3142 -1.22633,2.75687 -1.86112,4.32817 0.6925,-0.14261 1.38512,-0.21393 2.07761,-0.21393 0.69249,-0.0276 1.3559,0.0713 1.99069,0.30021 0.7502,0.31439 1.21194,0.72845 1.38507,1.2427 0.20198,0.51424 0.2596,1.04256 0.17304,1.58536 -0.11542,0.62854 -0.36047,1.28581 -0.7356,1.97146 -0.0865,-0.37152 -0.31741,-0.67152 -0.69253,-0.90006 -0.34625,-0.22851 -0.79339,-0.38571 -1.3416,-0.47135 -0.54824,-0.11425 -1.18324,-0.15719 -1.90459,-0.12883 -0.72134,0.0276 -1.4858,0.0859 -2.293695,0.17178 -0.259696,0.74283 -0.505163,1.48564 -0.735994,2.22843 -0.230835,0.71423 -0.461713,1.45666 -0.692545,2.22805 -0.115413,0.39996 -0.25945,1.02868 -0.432581,1.88577 -0.173121,0.82851 -0.288765,1.71399 -0.346469,2.65676 -0.05771,0.9142 -0.02847,1.80008 0.08692,2.65714 0.115411,0.88565 0.403893,1.54252 0.865558,1.97106 -0.259672,0.0855 -0.548176,0.14303 -0.865558,0.17179 -0.259681,0.0571 -0.562776,0.0712 -0.909026,0.0426 -0.346253,0 -0.67815,-0.0276 -0.995555,-0.0855 -0.144261,0 -0.245307,-0.0157 -0.303017,-0.0426 -0.490511,-0.14301 -0.88004,-0.37151 -1.168576,-0.68571 -0.288543,-0.28561 -0.504801,-0.60024 -0.649083,-0.94307 -0.115421,-0.34274 -0.187643,-0.68555 -0.216483,-1.02838 v -0.814 c 0.08655,-1.57132 0.302831,-3.18551 0.649076,-4.84254 0.375102,-1.68559 0.82264,-3.34278 1.342014,-4.97124 -1.03875,0.0571 -1.94763,0.0157 -2.726685,-0.12845 h -0.259959 c -0.05771,-0.0276 -0.129933,-0.0575 -0.216482,-0.0863 -0.230841,-0.0571 -0.447091,-0.0997 -0.649084,-0.12843 -0.20197,-0.0571 -0.389442,-0.11426 -0.562551,-0.17138 l -0.346476,-0.12882 c -1.06759,-0.42856 -1.846647,-0.95723 -2.337151,-1.58576 -0.490537,-0.62854 -0.822023,-1.19979 -0.995152,-1.71404 -0.05771,-0.11425 -0.101124,-0.21432 -0.129987,-0.30021 0,-0.11424 -0.01458,-0.21431 -0.04345,-0.3002 v -0.12843 c -0.02885,-0.0571 -0.04306,-0.14302 -0.04306,-0.25727 v -0.17137 c -0.02885,-0.34275 -0.02885,-0.65698 0,-0.94269 0.02885,-1.08562 0.317344,-2.07151 0.865583,-2.95716 0.02885,-0.0855 0.101063,-0.21432 0.216481,-0.38568 0.05771,-0.11426 0.129933,-0.22851 0.216483,-0.34277 0.115413,-0.11425 0.21605,-0.22849 0.302623,-0.34275 l 0.259944,-0.34314 c 0.952176,-1.02849 2.134964,-1.89991 3.548806,-2.61414 l 0.822518,-0.38569 0.822105,-0.34275 0.432982,-0.17177 0.389526,-0.12843 c 0.605925,-0.2285 1.197523,-0.41419 1.77461,-0.55704 0.605925,-0.17137 1.168697,-0.31438 1.688074,-0.42872 l 0.649085,-0.12883 c 0.230832,-0.0571 0.490504,-0.0997 0.779046,-0.12842 0.288549,-0.0275 0.60586,-0.0571 0.952105,-0.0855 0.20196,-0.0276 0.40404,-0.043 0.606,-0.043 0.23085,-0.0276 0.46171,-0.043 0.69255,-0.043 h 0.21648 c 0.0865,-0.0276 0.173,-0.0426 0.25956,-0.0426 0.49052,-0.0275 0.98108,-0.043 1.47159,-0.043 z m 11.07979,2.78547 c 0,0.0276 0.0288,0.0717 0.0865,0.12883 l 0.25996,0.34316 c 0.0865,0.11424 0.18757,0.28562 0.30299,0.514 l 0.12959,0.21432 c 0.1154,0.22851 0.18762,0.4286 0.21648,0.6 0.0577,0.1714 0.11535,0.32858 0.17305,0.47136 v 0.17136 c 0.0288,0.0571 0.0435,0.1001 0.0435,0.12884 v 0.17138 l 0.12959,-0.30022 c 0.0288,-0.11424 0.0434,-0.28562 0.0434,-0.51396 l -0.0865,-0.38609 c -0.0577,-0.14301 -0.12993,-0.25687 -0.21651,-0.34275 l -0.17303,-0.34276 -0.12996,-0.17177 c -0.3174,-0.31437 -0.53367,-0.49985 -0.64909,-0.55699 z m 11.38797,0.77136 c 0.40396,0 0.7501,0.043 1.03861,0.12882 0.28855,0.0859 0.53403,0.17138 0.73599,0.25687 0.23084,0.11425 0.4183,0.2289 0.56258,0.34315 -0.31741,0.54281 -0.63471,1.17115 -0.9521,1.88541 -0.28853,0.59994 -0.63503,1.31424 -1.03899,2.14275 -0.37513,0.82848 -0.76465,1.74287 -1.16859,2.74281 -0.28853,0.71422 -0.63464,1.54266 -1.03862,2.48542 -0.37512,0.94277 -0.72122,1.81418 -1.0386,2.61413 -0.40395,0.99988 -0.76468,1.98541 -1.08206,2.95677 -0.31738,0.94277 -0.46184,1.64301 -0.43298,2.10013 0.0577,0.20013 0.11533,0.31399 0.17303,0.34274 0.0288,0.0855 0.10107,0.12884 0.21649,0.12884 0.0865,0 0.18759,-0.0275 0.30301,-0.0855 0.11541,-0.0571 0.25988,-0.18556 0.43299,-0.38569 0.17312,-0.20013 0.37478,-0.47158 0.60562,-0.81441 0.23084,-0.34275 0.46171,-0.71403 0.69252,-1.11399 l 0.77907,-1.2001 c 0.25969,-0.39995 0.49055,-0.75712 0.69253,-1.07139 0.0681,-0.13513 0.14776,-0.24742 0.23602,-0.34276 0.24505,-0.51337 0.50677,-0.97128 0.78545,-1.3714 0.60593,-0.85708 1.24052,-1.5284 1.90419,-2.01407 0.69248,-0.51426 1.39971,-0.85732 2.12106,-1.02878 0.72133,-0.20013 1.41355,-0.29981 2.0772,-0.29981 0.75019,0 1.32718,0.10009 1.73113,0.29981 0.40395,0.20013 0.70705,0.41454 0.90904,0.64308 l 0.5195,-1.3714 c 0.17312,-0.45709 0.31716,-0.7998 0.43258,-1.02835 0.40395,-0.97136 0.77928,-1.85719 1.12553,-2.65715 0.34626,-0.79995 0.66355,-1.48573 0.9521,-2.0571 0.31737,-0.68566 0.62048,-1.28552 0.90902,-1.79973 l 0.43257,-0.21431 c 0.14428,-0.0571 0.34632,-0.0997 0.60603,-0.12842 0.28854,-0.0571 0.63465,-0.0859 1.03861,-0.0859 0.40396,0 0.75046,0.043 1.03899,0.12882 0.28856,0.0859 0.53363,0.1714 0.73559,0.25687 0.23083,0.11425 0.41828,0.22891 0.56258,0.34315 -0.3174,0.54281 -0.63469,1.17115 -0.95211,1.88541 -0.28854,0.59995 -0.62043,1.31424 -0.99553,2.14276 -0.37512,0.82847 -0.76464,1.74287 -1.16858,2.7428 -0.3174,0.71422 -0.67771,1.54266 -1.08167,2.48542 -0.37509,0.94277 -0.72161,1.81418 -1.039,2.61413 -0.20198,0.48566 -0.40403,0.98544 -0.60603,1.49969 -0.17312,0.51424 -0.33175,0.99996 -0.47604,1.45708 -0.1154,0.42851 -0.21644,0.82868 -0.303,1.20007 -0.0865,0.37152 -0.11536,0.67151 -0.0865,0.90006 0,0.20013 0.0435,0.31399 0.12998,0.34274 0.0288,0.0855 0.10109,0.12885 0.21648,0.12885 0.0865,0 0.18759,-0.0276 0.30301,-0.0855 0.11542,-0.0571 0.25948,-0.18556 0.43259,-0.3857 0.17313,-0.20012 0.37518,-0.47157 0.60601,-0.81441 0.23084,-0.34275 0.46173,-0.71403 0.69254,-1.11397 l 0.77907,-1.20012 c 0.17291,-0.26632 0.31394,-0.48501 0.46128,-0.71331 0.0799,-0.1568 0.16383,-0.31793 0.25556,-0.48676 0.20198,-0.37151 0.38944,-0.74262 0.56257,-1.11401 0.20197,-0.39997 0.38944,-0.78565 0.56257,-1.15704 0.20197,-0.37153 0.36063,-0.68559 0.47604,-0.9427 -0.28854,-0.45712 -0.46139,-0.95729 -0.51912,-1.50011 -0.0577,-0.57136 -0.0146,-1.09967 0.12959,-1.58536 0.14427,-0.48569 0.38976,-0.89986 0.73601,-1.24271 0.34623,-0.34274 0.77916,-0.51439 1.29853,-0.51439 0.60595,0 1.00967,0.25727 1.21165,0.77139 0.20199,0.51421 0.3176,1.05698 0.34648,1.62838 0,0.25727 -0.0146,0.51425 -0.0435,0.77137 v 0.55702 c -0.0288,0.0571 -0.0435,0.15719 -0.0435,0.29982 0.0288,0.14299 0.0723,0.24306 0.12997,0.3002 0.11541,0.0571 0.21646,0.0855 0.30301,0.0855 0.11541,-0.0275 0.21643,-0.0855 0.30302,-0.17137 0.11541,-0.11426 0.20183,-0.2289 0.25955,-0.34315 l 0.21647,-0.21393 c 0.11543,-0.11424 0.3175,-0.15718 0.60603,-0.12882 0.25968,0.0275 0.57699,0.0855 0.95208,0.17137 0.37512,0.0571 0.72123,0.1572 1.03862,0.29983 0.3174,0.14299 0.57706,0.35732 0.77904,0.64306 0.202,0.25726 0.26,0.58537 0.17344,0.98532 l -1.29855,3.21417 -0.17305,0.38571 c 0,0.11426 -0.0288,0.22848 -0.0865,0.34274 -0.25967,0.77135 -0.44753,1.45715 -0.56294,2.05711 -0.11542,0.57137 -0.0866,0.92854 0.0865,1.07139 0.0288,0.0855 0.10109,0.12884 0.21651,0.12884 0.0865,0 0.18758,-0.0275 0.303,-0.0855 0.11542,-0.0571 0.25988,-0.18556 0.43298,-0.38569 0.17312,-0.20013 0.3748,-0.47158 0.60561,-0.81441 0.23084,-0.34276 0.46171,-0.71404 0.69255,-1.11397 l 0.77905,-1.20012 c 0.22142,-0.34118 0.41102,-0.63477 0.59048,-0.91347 0.13584,-0.4064 0.28805,-0.84214 0.4605,-1.31496 0.37509,-1.05707 0.86563,-2.31414 1.47158,-3.77115 0.43281,-0.14302 0.89456,-0.24268 1.38506,-0.29981 0.40396,-0.0571 0.86531,-0.0426 1.38469,0.043 0.54821,0.0571 1.11101,0.21432 1.68806,0.47137 -0.72134,1.59987 -1.34173,3.057 -1.86108,4.3712 -0.23084,0.57137 -0.44713,1.12821 -0.6491,1.671 -0.17312,0.54286 -0.31756,1.04301 -0.43298,1.50013 -0.11542,0.42855 -0.18764,0.79975 -0.2165,1.11401 -0.0288,0.31439 0.0146,0.51433 0.12997,0.60006 0.0289,0.0855 0.10108,0.12883 0.21651,0.12883 0.0865,0 0.18759,-0.0275 0.303,-0.0855 0.11543,-0.0571 0.25945,-0.18557 0.43258,-0.3857 0.17313,-0.20013 0.3752,-0.47158 0.60605,-0.81441 0.23082,-0.34275 0.47629,-0.71402 0.73597,-1.11397 0.2597,-0.4 0.50478,-0.80012 0.73558,-1.20012 0.25969,-0.39995 0.50518,-0.75713 0.73601,-1.07139 0.11541,-0.2285 0.25946,-0.40008 0.4326,-0.51437 0.14425,-0.11424 0.31751,-0.19975 0.5195,-0.25686 0.20197,-0.0571 0.41824,-0.0276 0.64908,0.0855 0.0378,0.0157 0.071,0.0394 0.10483,0.0579 l 1.21961,-2.41476 0.64909,-1.28574 c 0.20199,-0.39995 0.38944,-0.74268 0.56257,-1.02835 0.20198,-0.31438 0.38946,-0.61439 0.56255,-0.90005 0.66366,0.0571 1.21223,0.1572 1.64503,0.29981 0.43282,0.14301 0.77893,0.28562 1.03861,0.42833 0.31742,0.17137 0.54826,0.35732 0.69255,0.55739 -0.31739,0.5714 -0.43305,1.18564 -0.34647,1.84277 0.0865,0.6285 0.20218,1.32835 0.34647,2.09973 0.17311,0.77136 0.30296,1.62827 0.3895,2.57107 0.11544,0.9428 0.0433,1.98573 -0.21647,3.12851 -0.28855,1.19991 -0.7357,2.11386 -1.34162,2.7424 -0.57709,0.59997 -1.18327,1.01417 -1.81805,1.24273 -0.7502,0.31441 -1.52928,0.44282 -2.33719,0.38571 -1.183,-0.0275 -2.09188,-0.27106 -2.72667,-0.72834 -0.60593,-0.45711 -1.03847,-0.97133 -1.29817,-1.54273 -0.0399,-0.0828 -0.0775,-0.16666 -0.11242,-0.25135 -0.58406,0.68818 -1.24756,1.2865 -1.99107,1.7942 -0.83679,0.57141 -1.74566,0.78553 -2.72671,0.64269 -0.5771,-0.11426 -1.05302,-0.38531 -1.42813,-0.81402 -0.31739,-0.37152 -0.56287,-0.90009 -0.73598,-1.58576 -0.0101,-0.0406 -0.016,-0.0855 -0.0243,-0.12805 -0.60406,0.72609 -1.30585,1.3553 -2.1083,1.88499 -0.83675,0.5714 -1.74565,0.78552 -2.72667,0.64268 -0.60595,-0.11426 -1.08189,-0.38531 -1.42815,-0.81402 -0.3174,-0.37152 -0.56286,-0.90009 -0.736,-1.58576 -0.14425,-0.71423 -0.0578,-1.6997 0.25956,-2.95676 0.0577,-0.3144 0.14452,-0.71438 0.25995,-1.20007 l 0.43259,-1.49972 c 0.17313,-0.59998 0.404,-1.31429 0.69255,-2.14275 -0.31741,-0.0859 -0.62009,-0.21432 -0.90865,-0.3857 -0.3174,0.62853 -0.62047,1.1713 -0.90903,1.6284 -0.25968,0.45711 -0.46175,0.79978 -0.60602,1.02836 -0.1279,0.22417 -0.25927,0.42868 -0.39391,0.6162 -0.0808,0.17493 -0.17313,0.35458 -0.27947,0.54084 -0.14429,0.25727 -0.37517,0.68579 -0.69256,1.28576 -0.31737,0.57138 -0.70689,1.18565 -1.16856,1.84274 -0.46166,0.6571 -0.99564,1.29991 -1.60158,1.92841 -0.57707,0.59997 -1.22628,1.05716 -1.94763,1.37143 -0.31739,0.14263 -0.66351,0.25686 -1.0386,0.34276 -0.34625,0.0571 -0.70698,0.0571 -1.08207,0 -0.31738,-0.0571 -0.62048,-0.17138 -0.90902,-0.34276 -0.23084,-0.143 -0.46171,-0.35693 -0.69254,-0.64269 -0.23083,-0.31438 -0.40369,-0.72886 -0.5191,-1.24312 -0.43281,0.65711 -1.0102,1.22878 -1.73155,1.71448 -0.72133,0.48568 -1.63021,0.68533 -2.72668,0.59962 -0.72133,-0.0571 -1.31253,-0.19975 -1.77421,-0.42829 -0.46166,-0.25725 -0.82238,-0.55724 -1.08207,-0.9001 -0.28854,-0.37151 -0.49061,-0.78557 -0.60601,-1.24269 -0.0366,-0.14458 -0.0674,-0.28958 -0.0953,-0.43422 -0.32448,0.40731 -0.674,0.80958 -1.05574,1.20558 -0.60596,0.59997 -1.25516,1.05716 -1.94764,1.37143 -0.34625,0.14263 -0.69277,0.25686 -1.03901,0.34276 -0.34625,0.0571 -0.72117,0.0571 -1.12513,0 -0.31738,-0.0859 -0.62048,-0.21432 -0.90901,-0.38571 -0.23084,-0.14299 -0.46172,-0.35692 -0.69255,-0.64267 -0.23084,-0.31439 -0.38949,-0.74291 -0.47602,-1.28571 -0.0288,-0.1241 -0.049,-0.25608 -0.0649,-0.39279 -0.25859,0.28798 -0.54738,0.57598 -0.87474,0.86412 -0.51937,0.45709 -1.11095,0.88576 -1.7746,1.28573 -0.66364,0.39998 -1.39927,0.6856 -2.20718,0.85703 l -0.95249,0.12883 c -0.40394,0.0571 -0.82228,0.0571 -1.2551,0 -0.51936,-0.0275 -1.02412,-0.10008 -1.51464,-0.21433 -0.43281,-0.11424 -0.88036,-0.27144 -1.34202,-0.47134 -0.46167,-0.20013 -0.86541,-0.5001 -1.21164,-0.90005 l -0.0435,-0.0426 c -0.46166,-0.5428 -0.72133,-1.17154 -0.77905,-1.88576 -0.0865,-0.71426 -0.10077,-1.39965 -0.0431,-2.05675 0.0865,-0.74279 0.25941,-1.51413 0.51912,-2.31409 0.4328,-1.31416 0.93796,-2.38563 1.51504,-3.21415 0.60594,-0.85707 1.24055,-1.52839 1.90418,-2.01408 0.69249,-0.51425 1.39972,-0.85735 2.12106,-1.02876 0.72134,-0.20014 1.41358,-0.29982 2.07722,-0.29982 0.4328,0 0.80811,0.043 1.12552,0.12883 0.28854,0.0571 0.63465,0.22889 1.0386,0.51441 0.43282,0.28563 0.76471,0.75692 0.99554,1.41403 l 0.0431,0.043 c 0,0.0571 0.0147,0.17136 0.0434,0.34274 0.0577,0.14301 0.10112,0.35732 0.12999,0.64307 0.0288,0.14303 0.0431,0.37112 0.0431,0.68531 0,0.37151 -0.0722,0.80006 -0.21651,1.28576 l -0.0431,0.0854 v 0.0855 c -0.0577,0.17137 -0.11534,0.29981 -0.17303,0.3857 v 0.043 c -0.1154,0.25725 -0.28867,0.57128 -0.51951,0.94268 -0.20197,0.34273 -0.47626,0.68554 -0.82251,1.02837 -0.34625,0.3144 -0.76458,0.58583 -1.25509,0.81437 -0.49051,0.2285 -1.0675,0.35733 -1.73115,0.38569 -0.40396,0.0276 -0.73586,0.0157 -0.99554,-0.043 -0.23083,-0.0858 -0.3749,-0.12843 -0.43259,-0.12843 -0.40396,-0.14301 -0.77927,-0.34276 -1.12551,-0.60005 -0.0577,0.22849 -0.11533,0.48568 -0.17304,0.77138 -0.0289,0.28564 -0.0143,0.55727 0.0435,0.81438 0,0.0571 0.0142,0.15719 0.043,0.3002 0.0288,0.11425 0.0864,0.25686 0.17304,0.42832 0.0577,0.0855 0.12995,0.18556 0.21649,0.3002 0.0865,0.0855 0.1876,0.1572 0.30301,0.21433 0.0865,0.11425 0.2022,0.18594 0.34648,0.21432 l 0.17303,0.0855 c 0.46167,0.14301 0.90881,0.18555 1.34161,0.12843 0.46167,-0.0571 0.89459,-0.17137 1.29856,-0.34274 l 0.82212,-0.3857 c 0.40394,-0.25726 0.77927,-0.5713 1.1255,-0.94268 0.34625,-0.37152 0.64896,-0.71452 0.90864,-1.02874 l 0.47604,-0.64267 c 0.3174,-0.48569 0.63509,-0.98588 0.9525,-1.50012 0.29436,-0.4615 0.56306,-0.85998 0.81573,-1.21824 0.0427,-0.13984 0.0775,-0.26196 0.124,-0.41014 0.28853,-0.85709 0.66345,-1.85705 1.1251,-2.99979 0.20198,-0.51425 0.43285,-1.11406 0.69255,-1.79972 0.28854,-0.68571 0.50521,-1.18545 0.64947,-1.49974 0.40396,-0.97136 0.77886,-1.85719 1.12512,-2.65714 0.34625,-0.79996 0.66355,-1.48574 0.9521,-2.05711 0.31738,-0.68566 0.62047,-1.28547 0.90902,-1.79972 l 0.43297,-0.21431 c 0.1443,-0.0571 0.34596,-0.0997 0.60563,-0.12843 0.28854,-0.0571 0.63505,-0.0863 1.03901,-0.0863 z m -26.579526,0.42871 c -0.14426,0 -0.360534,0.0276 -0.649077,0.0855 l -2.164111,0.51437 -1.341623,0.47136 -0.822515,0.34275 -0.735596,0.34313 c -0.230833,0.14302 -0.447492,0.27146 -0.649461,0.3857 -0.201994,0.11426 -0.389452,0.24268 -0.562573,0.3857 l -0.692539,0.60005 c -0.08656,0.0571 -0.158778,0.12844 -0.216482,0.21393 l -0.173045,0.17176 c -0.375092,0.40001 -0.648983,0.81418 -0.822106,1.24273 -0.144282,0.39997 -0.231095,0.78565 -0.259965,1.15705 -0.05772,0.39997 -0.01427,0.74267 0.129993,1.02834 l 0.129972,0.3002 c 0.20197,0.39996 0.519276,0.71414 0.952078,0.94269 0.461666,0.22849 0.99523,0.40012 1.601178,0.51437 0.577077,0.11424 1.284295,0.17137 2.121061,0.17137 h 0.25955 c 0.08656,-0.0275 0.172983,-0.0426 0.259557,-0.0426 0.605924,-1.77128 1.226331,-3.41404 1.861119,-4.92823 0.663636,-1.51417 1.255211,-2.81421 1.774585,-3.89985 z m -3.938721,0.12883 c -0.02885,0 -0.05763,0.0157 -0.08651,0.0426 h -0.08653 c -0.08655,0 -0.187582,0.0158 -0.302993,0.043 -0.08657,0 -0.201809,0.0157 -0.346068,0.0426 l -0.216506,0.0854 c -0.346252,0.0855 -0.706949,0.2285 -1.082065,0.42872 -0.346252,0.20014 -0.678147,0.47153 -0.995537,0.81438 l -0.129585,0.12842 -0.129971,0.12882 -0.08652,0.12883 c 0.02885,-0.0275 0.101071,-0.0858 0.216483,-0.17176 0.05771,-0.0572 0.144143,-0.12842 0.259557,-0.21392 0.11542,-0.0859 0.245268,-0.17177 0.389526,-0.25727 0.115414,-0.0855 0.288667,-0.18556 0.5195,-0.29981 0.288542,-0.14301 0.591252,-0.28562 0.908634,-0.42832 0.346252,-0.143 0.721567,-0.25726 1.125523,-0.34314 l 0.562552,-0.12844 z m 30.042197,0.21392 c -0.20197,0.0275 -0.38983,0.0575 -0.56295,0.0863 l -0.43257,0.0855 c -0.1443,0 -0.24531,0.0157 -0.30303,0.0426 -0.14429,0.2285 -0.28871,0.47163 -0.43299,0.72873 -0.14426,0.2285 -0.28831,0.48568 -0.43256,0.77138 -0.0881,0.19622 -0.18732,0.39279 -0.29228,0.58898 0.0506,-0.0784 0.11919,-0.17452 0.20574,-0.28877 0.17312,-0.2285 0.3752,-0.48564 0.60603,-0.77134 0.23082,-0.28563 0.49051,-0.54281 0.77905,-0.77136 0.28854,-0.2285 0.57703,-0.38608 0.86556,-0.47178 z m 15.30397,0 -0.606,0.0863 -0.43259,0.0855 c -0.14427,0 -0.24528,0.0157 -0.30301,0.0426 -0.14427,0.2285 -0.28871,0.47163 -0.43297,0.72873 -0.14429,0.2285 -0.28874,0.48568 -0.433,0.77138 -0.089,0.19857 -0.18956,0.39685 -0.29582,0.59529 0.0508,-0.0799 0.1201,-0.17768 0.2093,-0.29548 0.17313,-0.22849 0.37519,-0.48564 0.60601,-0.77133 0.23084,-0.28563 0.49053,-0.54281 0.77907,-0.77137 0.28855,-0.2285 0.59163,-0.38607 0.90901,-0.47177 z m 17.2891,2.42662 c 0.46529,0.0118 0.94675,0.10203 1.44448,0.2734 0.11541,0.0571 0.21645,0.12844 0.30302,0.21392 0.17312,0.17139 0.20193,0.4145 0.0865,0.72873 l -0.6491,1.45709 c -0.0288,0.0855 -0.0723,0.18595 -0.12996,0.29982 -0.0865,0.17136 -0.18762,0.31398 -0.30302,0.42831 -0.17313,0.20014 -0.43279,0.40004 -0.77905,0.60005 -0.34626,0.20014 -0.80759,0.25688 -1.38467,0.17138 -0.51939,-0.0571 -0.90889,-0.18557 -1.16858,-0.3857 -0.25969,-0.22849 -0.43294,-0.45715 -0.5195,-0.68569 -0.0865,-0.17137 -0.10117,-0.35694 -0.0434,-0.55705 l 0.0865,-0.34273 0.25997,-0.77136 c 0.11539,-0.25726 0.24524,-0.5432 0.38951,-0.85742 0.0288,-0.0571 0.0718,-0.11426 0.12956,-0.17138 0.14429,-0.14302 0.28873,-0.22851 0.43299,-0.25688 0.34626,-0.0571 0.808,-0.10007 1.38508,-0.12881 0.15149,-0.0157 0.3046,-0.0197 0.4597,-0.0157 z m -0.45969,0.48753 c -0.14428,0.0275 -0.2741,0.043 -0.38952,0.043 -0.11543,0.0275 -0.24527,0.0426 -0.38952,0.0426 -0.11542,0 -0.23106,0.0157 -0.34648,0.043 -0.17313,0.0571 -0.28836,0.12881 -0.34608,0.21431 -0.0577,0.0571 -0.0865,0.0997 -0.0865,0.12843 l -0.64429,1.39588 c 0.0288,-0.0492 0.0693,-0.11347 0.1248,-0.19581 0.14426,-0.17138 0.30292,-0.37151 0.47604,-0.60005 0.20197,-0.22851 0.43284,-0.44267 0.69255,-0.64268 0.28854,-0.20013 0.5916,-0.34314 0.90901,-0.42871 z m -14.85744,2.74284 c -0.0865,0.11425 -0.1588,0.24269 -0.2165,0.3857 -0.0577,0.14301 -0.11531,0.31438 -0.17302,0.51435 -0.0289,0.17139 -0.0435,0.37112 -0.0435,0.59967 -0.0288,0.25726 -0.0143,0.52871 0.0435,0.81441 0.0577,0.28562 0.17295,0.52832 0.34607,0.72832 -0.0577,-0.31437 -0.10074,-0.62842 -0.1296,-0.94268 -0.0288,-0.28563 -0.0435,-0.59985 -0.0435,-0.94269 0.0288,-0.37151 0.10109,-0.75713 0.2165,-1.15704 z m 21.33227,1.37136 c 0.57708,0.14301 1.06725,0.28562 1.47121,0.42836 0.40395,0.14261 0.63481,0.24269 0.69253,0.29982 -0.17314,-0.17139 -0.3894,-0.29982 -0.64907,-0.3857 -0.23083,-0.11425 -0.4617,-0.19975 -0.69254,-0.25686 -0.28854,-0.0571 -0.56243,-0.0855 -0.82213,-0.0855 z m 12.95885,0.59966 c 0.4328,0 0.80813,0.043 1.12551,0.12883 0.28855,0.0571 0.63466,0.2285 1.0386,0.51437 0.43283,0.28563 0.76473,0.75693 0.99556,1.41403 l 0.0431,0.043 c 0,0.0571 0.0146,0.17137 0.0435,0.34275 0.0577,0.143 0.10112,0.35732 0.12997,0.64307 0.0288,0.14301 0.0431,0.37112 0.0431,0.68531 0,0.37152 -0.0722,0.80006 -0.21651,1.28576 l -0.043,0.0855 v 0.0855 c -0.0577,0.17138 -0.11533,0.29981 -0.17303,0.3857 v 0.043 c -0.11542,0.25726 -0.28868,0.57129 -0.51951,0.94268 -0.20197,0.34275 -0.47627,0.68553 -0.8225,1.02837 -0.34627,0.31439 -0.76458,0.58583 -1.2551,0.81436 -0.49052,0.22852 -1.06751,0.35735 -1.73114,0.38571 -0.40397,0.0276 -0.73586,0.0157 -0.99556,-0.0429 -0.23084,-0.0855 -0.37486,-0.12844 -0.43258,-0.12844 -0.40395,-0.14301 -0.77927,-0.34275 -1.12552,-0.60005 -0.0577,0.2285 -0.11531,0.48569 -0.17302,0.77139 -0.0288,0.28563 -0.0147,0.55726 0.043,0.81437 0,0.0571 0.0146,0.15719 0.0435,0.3002 0.0289,0.11425 0.0864,0.25687 0.17305,0.42833 0.0577,0.0855 0.12991,0.18555 0.21647,0.3002 0.0865,0.0854 0.1876,0.15719 0.30301,0.21432 0.0865,0.11425 0.20178,0.18596 0.34606,0.21432 l 0.17344,0.0855 c 0.46167,0.14301 0.9088,0.18555 1.34162,0.12844 0.46165,-0.0571 0.89459,-0.17137 1.29855,-0.34276 l 0.82211,-0.38569 c 0.40395,-0.25726 0.77927,-0.57129 1.12551,-0.94268 0.34625,-0.37152 0.64894,-0.7145 0.90864,-1.02872 l 0.47604,-0.64268 c 0.31738,-0.48569 0.63509,-0.98589 0.95248,-1.50012 0.34624,-0.54282 0.66356,-1.01408 0.95212,-1.41403 0.14425,-0.2285 0.2883,-0.40013 0.43257,-0.51441 0.14428,-0.11424 0.30331,-0.19974 0.47644,-0.25686 0.20199,-0.0571 0.43246,-0.0275 0.69214,0.0855 0.43281,0.20014 0.60608,0.57162 0.51951,1.11442 -0.0865,0.51425 -0.31744,1.09961 -0.69254,1.75671 -0.11542,0.20014 -0.28828,0.51451 -0.51911,0.94308 -0.23082,0.39995 -0.50511,0.87121 -0.8225,1.41402 -0.23083,0.31439 -0.53394,0.7144 -0.90904,1.20008 -0.34625,0.45711 -0.77878,0.91393 -1.29816,1.371 -0.51938,0.45712 -1.11095,0.88579 -1.77459,1.28575 -0.66365,0.4 -1.39968,0.68562 -2.20758,0.85704 l -0.9521,0.12883 c -0.40394,0.0571 -0.8223,0.0571 -1.2551,0 -0.51938,-0.0275 -1.02412,-0.10008 -1.51464,-0.21433 -0.43281,-0.11424 -0.88037,-0.27144 -1.34201,-0.47133 -0.46166,-0.20014 -0.8654,-0.50011 -1.21164,-0.9001 l -0.0435,-0.0426 c -0.46166,-0.5428 -0.72133,-1.17154 -0.77904,-1.88577 -0.0865,-0.71422 -0.10077,-1.39962 -0.0431,-2.05671 0.0865,-0.74278 0.25941,-1.51412 0.51909,-2.31408 0.43282,-1.31421 0.93796,-2.38568 1.51505,-3.21416 0.60595,-0.85711 1.24052,-1.52839 1.90417,-2.01411 0.69249,-0.51425 1.39972,-0.85732 2.12108,-1.02874 0.72133,-0.20012 1.41356,-0.2998 2.07721,-0.2998 z m -21.38131,0.47174 c -0.20198,0.0275 -0.38944,0.0426 -0.56257,0.0426 -0.14425,0.0275 -0.30332,0.043 -0.47645,0.043 -0.14425,0 -0.24489,0.0157 -0.3026,0.0426 l -0.95248,2.05711 c 0.0577,-0.11426 0.14453,-0.27144 0.25996,-0.47136 0.14426,-0.2285 0.31711,-0.45716 0.51908,-0.68568 0.20198,-0.25727 0.43286,-0.47128 0.69255,-0.64269 0.25967,-0.20014 0.53397,-0.32857 0.82251,-0.3857 z m -44.62931,0.72833 c -0.57709,0.143 -1.06764,0.3715 -1.47161,0.68573 -0.37511,0.28562 -0.6782,0.5858 -0.90901,0.90002 -0.28855,0.34276 -0.51942,0.72853 -0.69254,1.15708 0.23083,-0.31438 0.51972,-0.62884 0.86597,-0.94312 0.34626,-0.34273 0.67774,-0.64251 0.99515,-0.89965 0.37508,-0.31439 0.77921,-0.61434 1.21204,-0.90006 z m 63.71692,0 c -0.57709,0.143 -1.06765,0.3715 -1.47161,0.68573 -0.37508,0.28562 -0.67819,0.5858 -0.90901,0.90002 -0.28855,0.34276 -0.51942,0.72853 -0.69254,1.15708 0.23082,-0.31438 0.51933,-0.62884 0.86558,-0.94312 0.34625,-0.34273 0.67815,-0.64251 0.99554,-0.89965 0.3751,-0.31439 0.77923,-0.61434 1.21204,-0.90006 z m -26.97703,0.0197 c -0.12984,0 -0.25968,0.008 -0.38953,0.0236 0.34625,0.0855 0.63514,0.17138 0.86598,0.25688 l 0.64908,0.2143 c 0.17313,0.0859 0.33178,0.17138 0.47605,0.25687 -0.14427,-0.22851 -0.33174,-0.40007 -0.56258,-0.51436 -0.20197,-0.11425 -0.41864,-0.18556 -0.64948,-0.21393 -0.12982,-0.0157 -0.25967,-0.0236 -0.38952,-0.0236 z m -17.5961,0.19304 c -0.72133,0.20013 -1.32752,0.52863 -1.81802,0.9857 -0.46168,0.42855 -0.8512,0.87131 -1.16858,1.32839 -0.11804,0.18517 -0.22671,0.37703 -0.33134,0.57204 0.0424,0.0118 0.0858,0.0315 0.12919,0.0516 0.14991,-0.2218 0.30325,-0.43276 0.46209,-0.62372 0.40396,-0.48569 0.79348,-0.89991 1.16858,-1.24274 0.40396,-0.34275 0.73546,-0.59993 0.99513,-0.77135 0.28856,-0.17137 0.47641,-0.27145 0.56295,-0.3002 z m -28.45857,0.93993 c -0.35165,0.0157 -0.74374,0.0887 -1.17655,0.21707 0.43281,-0.0571 0.86575,-0.0855 1.29857,-0.0855 0.37509,0 0.74999,0.0275 1.12511,0.0855 0.37509,0.0275 0.72161,0.10009 1.039,0.21432 -0.25968,-0.14261 -0.54858,-0.25726 -0.86598,-0.34314 -0.28855,-0.0571 -0.64924,-0.0855 -1.08204,-0.0855 -0.10822,-0.008 -0.22089,-0.008 -0.33811,-0.003 z m 11.81298,0.31005 c -0.44633,0.0197 -0.94722,0.27342 -1.50266,0.76425 -0.80794,0.68567 -1.50053,1.74268 -2.07762,3.17112 0.14427,0.11426 0.43275,0.2427 0.86557,0.3857 0.43281,0.11426 1.0098,0.0571 1.73114,-0.17137 0.43282,-0.17138 0.77932,-0.38569 1.039,-0.64268 0.2597,-0.28563 0.44715,-0.58579 0.56257,-0.90006 0.14425,-0.31439 0.23069,-0.61436 0.25955,-0.90006 0.0577,-0.31439 0.0865,-0.5569 0.0865,-0.72833 -0.0577,-0.45712 -0.18757,-0.74275 -0.38954,-0.85704 -0.18033,-0.0895 -0.37164,-0.13 -0.57453,-0.12172 z m 63.71656,0 c -0.44633,0.0197 -0.94686,0.27342 -1.50229,0.76425 -0.80793,0.68567 -1.50054,1.74268 -2.07763,3.17112 0.14428,0.11426 0.43276,0.2427 0.86559,0.3857 0.4328,0.11426 1.00978,0.0571 1.73113,-0.17137 0.43281,-0.17138 0.77933,-0.38569 1.039,-0.64268 0.25969,-0.28563 0.44717,-0.58579 0.56258,-0.90006 0.14426,-0.31439 0.23069,-0.61436 0.25953,-0.90006 0.0577,-0.31439 0.0865,-0.5569 0.0865,-0.72833 -0.0577,-0.45712 -0.18756,-0.74275 -0.38954,-0.85704 -0.18034,-0.0895 -0.37204,-0.13 -0.57491,-0.12172 z m -44.40925,0.0157 c -0.17311,0 -0.35347,0.0355 -0.54103,0.10755 -0.37512,0.14301 -0.76461,0.41402 -1.16858,0.81402 -0.40396,0.3715 -0.80807,0.87158 -1.21204,1.50007 -0.37511,0.62854 -0.707,1.34244 -0.99556,2.14239 -0.20197,0.59993 -0.33181,1.14309 -0.38951,1.62879 -0.0577,0.39996 -0.0432,0.78565 0.0435,1.15704 0.11542,0.37151 0.3751,0.58555 0.77905,0.64267 0.2597,0.0571 0.53399,0.0426 0.82252,-0.043 0.3174,-0.0859 0.63469,-0.27144 0.9521,-0.55703 0.34624,-0.31438 0.69236,-0.7429 1.03861,-1.28571 0.34625,-0.57141 0.67814,-1.31384 0.99553,-2.22805 v 0.0854 c 0.0288,-0.0275 0.0435,-0.10008 0.0435,-0.21432 l -0.0435,0.0855 0.21651,-0.64268 c 0.11541,-0.34277 0.20184,-0.7285 0.25954,-1.15705 0.0865,-0.42856 0.11537,-0.82866 0.0865,-1.20011 -0.0288,-0.37151 -0.1587,-0.61404 -0.38954,-0.72833 -0.15868,-0.0713 -0.32444,-0.10753 -0.49758,-0.10753 z m 30.42376,2.12147 -0.6491,1.0714 c 0.11542,0.14261 0.18725,0.28563 0.21609,0.42828 l 0.17346,0.34314 0.0865,0.34274 c -0.34626,0.0275 -0.67817,0.10009 -0.99556,0.21433 -0.25968,0.11426 -0.51936,0.28603 -0.77905,0.51441 -0.25968,0.2285 -0.43295,0.55679 -0.5195,0.98531 -0.17314,0.57137 -0.0863,1.00006 0.25995,1.28576 0.0865,0.0855 0.18759,0.14261 0.303,0.17136 h 0.30262 c 0.11541,0 0.23105,-0.0157 0.34647,-0.0426 0.51936,-0.14301 0.88007,-0.44298 1.08207,-0.90006 0.23084,-0.48568 0.36067,-1.01439 0.38952,-1.5858 0.0577,-0.57137 0.0432,-1.11414 -0.0435,-1.62839 -0.0577,-0.54281 -0.11534,-0.94256 -0.17304,-1.19966 z m -49.63257,1.9284 c -0.17311,0.14301 -0.3752,0.27143 -0.60603,0.38568 -0.20196,0.0855 -0.43245,0.17139 -0.69213,0.25688 -0.25971,0.0571 -0.53396,0.0716 -0.82251,0.043 0.25967,0.0571 0.51938,0.0713 0.77905,0.0426 0.23084,-0.0275 0.46171,-0.0855 0.69255,-0.17139 0.23083,-0.11425 0.44707,-0.29982 0.64907,-0.55698 z m 63.71691,0 c -0.17312,0.14301 -0.37517,0.27143 -0.606,0.38568 -0.20199,0.0855 -0.43285,0.17139 -0.69254,0.25688 -0.25968,0.0571 -0.53356,0.0716 -0.8221,0.043 0.25967,0.0571 0.51936,0.0713 0.77905,0.0426 0.23084,-0.0275 0.4617,-0.0855 0.69252,-0.17139 0.23084,-0.11425 0.44711,-0.29982 0.64907,-0.55698 z m -51.75761,4.71386 c 0.0288,0.31439 0.12988,0.59994 0.30301,0.85704 0.14426,0.22849 0.37476,0.44269 0.69214,0.64267 0.3174,0.17138 0.76494,0.28603 1.34201,0.34315 -0.0288,0 -0.14448,-0.043 -0.34646,-0.12882 -0.17312,-0.0859 -0.37519,-0.19976 -0.60602,-0.34276 -0.23083,-0.17138 -0.47592,-0.35694 -0.73559,-0.55698 -0.2597,-0.22851 -0.47597,-0.50016 -0.64909,-0.81442 z m 33.04198,0.55704 c 0.31741,0.37149 0.70694,0.68554 1.1686,0.94267 0.40396,0.2285 0.8945,0.40009 1.47159,0.51438 0.57707,0.0859 1.28429,0.0157 2.12108,-0.21433 -0.0865,0 -0.28864,0.0157 -0.60604,0.043 -0.31738,0.0275 -0.7069,0.0157 -1.16858,-0.043 -0.43279,-0.0858 -0.90874,-0.21432 -1.42813,-0.38569 -0.51937,-0.17138 -1.03914,-0.45704 -1.55852,-0.85699 z m -40.16589,0.0855 c 0,0.28562 0.0718,0.52875 0.2161,0.72872 0.14425,0.17137 0.34633,0.314 0.60601,0.42833 0.25968,0.11424 0.66383,0.14261 1.21203,0.0855 -0.23083,0.0275 -0.4763,-0.0157 -0.73599,-0.12844 -0.23084,-0.0571 -0.4617,-0.17178 -0.69252,-0.34314 -0.23083,-0.20014 -0.4325,-0.45709 -0.60563,-0.77136 z m 15.26053,0 c 0,0.28562 0.0722,0.52875 0.21648,0.72872 0.14428,0.17137 0.34634,0.314 0.60604,0.42833 0.28853,0.11424 0.69224,0.14261 1.21161,0.0855 -0.23083,0.0275 -0.47591,-0.0157 -0.73559,-0.12844 -0.23084,-0.0571 -0.46171,-0.17178 -0.69254,-0.34314 -0.23083,-0.20014 -0.43289,-0.45709 -0.606,-0.77136 z m 11.19101,0 c 0,0.28562 0.0722,0.52875 0.2165,0.72872 0.14426,0.17137 0.34591,0.314 0.60561,0.42833 0.25969,0.11424 0.66382,0.14261 1.21205,0.0855 -0.23084,0.0275 -0.4763,-0.0157 -0.736,-0.12844 -0.23084,-0.0571 -0.4613,-0.17178 -0.69213,-0.34314 -0.23084,-0.20014 -0.43291,-0.45709 -0.60603,-0.77136 z m 7.02345,0 c 0,0.28562 0.0722,0.52875 0.21649,0.72872 0.14426,0.17137 0.34633,0.314 0.60602,0.42833 0.25967,0.11424 0.66341,0.14261 1.21163,0.0855 -0.23084,0.0275 -0.47589,-0.0157 -0.7356,-0.12844 -0.23082,-0.0571 -0.46171,-0.17178 -0.69254,-0.34314 -0.23081,-0.20014 -0.43288,-0.45709 -0.606,-0.77136 z m -44.06677,0.72872 c 0.3751,0.31439 0.82265,0.55695 1.34201,0.72833 0.43282,0.143 0.96639,0.2289 1.60117,0.25726 0.6348,0.0275 1.37044,-0.11426 2.20718,-0.42872 -0.57709,0.11426 -1.15405,0.17138 -1.73114,0.17138 -0.49051,0 -1.05291,-0.0426 -1.68767,-0.12844 -0.60595,-0.0854 -1.18332,-0.28562 -1.73155,-0.60004 z m 63.71693,0 c 0.37511,0.31439 0.82223,0.55695 1.34162,0.72833 0.43281,0.143 0.96678,0.2289 1.60157,0.25726 0.63478,0.0275 1.37042,-0.11426 2.20718,-0.42872 -0.57708,0.11426 -1.15406,0.17138 -1.73114,0.17138 -0.49052,0 -1.05329,-0.0426 -1.68808,-0.12844 -0.60594,-0.0854 -1.18293,-0.28562 -1.73115,-0.60004 z m -77.973538,1.19972 c 0,0.39995 0.05763,0.75708 0.173045,1.07135 0.115422,0.28562 0.303265,0.54285 0.56296,0.7714 0.25968,0.25725 0.649201,0.42867 1.168576,0.51435 -0.144276,-0.0571 -0.433166,-0.24269 -0.865969,-0.55698 -0.403962,-0.28563 -0.750068,-0.88593 -1.038612,-1.80012 z"
       id="path2470"
       inkscape:connector-curvature="0"
       inkscape:export-xdpi="96"
       inkscape:export-ydpi="96" />
    <g
       id="g2385"
       transform="matrix(0.48124737,0,0,0.47649864,60.109418,89.705896)"
       inkscape:export-xdpi="96"
       inkscape:export-ydpi="96">
      <g
         id="g2331"
         style="fill:#ff824c;fill-opacity:1"
         inkscape:export-xdpi="96"
         inkscape:export-ydpi="96">
        <path
           id="path2323"
           d="m 313.07422,149.27344 c -0.71094,-4.16797 -4.66406,-6.96094 -8.82422,-6.25782 L 285.30078,146.25 c -4.16406,0.71094 -6.96484,4.66016 -6.2539,8.82422 0.63281,3.73047 3.87109,6.36328 7.52734,6.36328 0.42969,0 0.85937,-0.0352 1.29687,-0.10938 l 18.94922,-3.23046 c 4.16407,-0.71094 6.96485,-4.66016 6.25391,-8.82422 z m 0,0"
           inkscape:connector-curvature="0"
           style="fill:#ff824c;fill-opacity:1" />
        <path
           id="path2325"
           d="m 304.12891,185.01172 -18.24219,-9.91016 c -3.71485,-2.01562 -8.35938,-0.64062 -10.375,3.07031 -2.01563,3.71094 -0.64063,8.35547 3.07031,10.375 l 18.24609,9.90625 c 1.16016,0.63282 2.41016,0.92969 3.64454,0.92969 2.71484,0 5.33984,-1.44531 6.72656,-4 2.01953,-3.71094 0.64453,-8.35547 -3.07031,-10.37109 z m 0,0"
           inkscape:connector-curvature="0"
           style="fill:#ff824c;fill-opacity:1" />
        <path
           id="path2327"
           d="m 25.3125,161.32812 c 0.433594,0.0742 0.867188,0.10938 1.292969,0.10938 3.660156,0 6.898437,-2.63281 7.53125,-6.36328 0.710937,-4.16406 -2.089844,-8.11328 -6.253907,-8.82422 L 8.9375,143.01562 c -4.164062,-0.70703 -8.117188,2.08985 -8.828125,6.25782 -0.710937,4.16406 2.089844,8.11328 6.253906,8.82422 z m 0,0"
           inkscape:connector-curvature="0"
           style="fill:#ff824c;fill-opacity:1" />
        <path
           id="path2329"
           d="m 27.296875,175.10156 -18.242187,9.91016 c -3.714844,2.01562 -5.085938,6.66015 -3.070313,10.375 1.382813,2.55078 4.011719,3.99609 6.726563,3.99609 1.234374,0 2.484374,-0.29687 3.644531,-0.92578 l 18.246093,-9.91016 c 3.710938,-2.01953 5.085938,-6.66015 3.070313,-10.375 -2.019531,-3.71093 -6.660156,-5.08593 -10.375,-3.07031 z m 0,0"
           inkscape:connector-curvature="0"
           style="fill:#ff824c;fill-opacity:1" />
      </g>
      <path
         style="fill:#ffe9c8;stroke-width:1.33333337"
         d="m -915.78516,-100.67578 c -0.77067,0.01 -1.53711,0.092 -2.30078,0.25 -24.78646,5.124999 -19.97461,87.587889 -19.97461,87.587889 0,0 -51.19726,78.58399 -49.54101,123.787111 1.25498,34.24772 18.24745,59.84371 38.91406,72.63476 a 270.35716,215.71427 0 0 0 19.76953,8.04297 c 0.2617,0.0541 0.52349,0.11987 0.78516,0.16993 0,0 -0.0348,0.11802 -0.0352,0.11914 A 270.35716,215.71427 0 0 0 -815,211.98438 270.35716,215.71427 0 0 0 -675.49414,180.79297 c 18.74236,-13.52829 33.58236,-37.92642 34.75195,-69.84375 1.65626,-45.203121 -49.54297,-123.787111 -49.54297,-123.787111 0,0 4.81381,-82.46289 -19.97265,-87.587889 -24.44271,-5.05729 -52.96875,68.041014 -52.96875,68.041014 h -101.89063 c 0,0 -26.77714,-68.601244 -50.66797,-68.291014 z"
         transform="matrix(0.75,0,0,0.75,767.22111,75.507312)"
         id="path2337"
         inkscape:connector-curvature="0"
         inkscape:export-xdpi="96"
         inkscape:export-ydpi="96" />
      <path
         id="path2341"
         d="M 78.65625,0.1875 C 60.066406,4.03125 63.675781,65.878906 63.675781,65.878906 c 0,0 -38.398437,58.937504 -37.15625,92.839844 0.65625,17.92578 7.0625,32.69141 16.140625,43.24219 C 150.62109,177.81641 141.11719,51.21875 141.11719,51.21875 h -22.73438 c 0,0 -21.398435,-54.824219 -39.72656,-51.03125 z m 0,0"
         inkscape:connector-curvature="0"
         style="fill:#ff824c;fill-opacity:1"
         inkscape:export-xdpi="96"
         inkscape:export-ydpi="96" />
      <path
         id="path2343"
         d="m 234.52734,0.1875 c 18.58594,3.84375 14.98047,65.691406 14.98047,65.691406 0,0 38.39844,58.937504 37.15625,92.839844 -0.65625,17.92578 -7.0625,32.69141 -16.14062,43.24219 C 162.5625,177.81641 172.0625,51.21875 172.0625,51.21875 h 22.73828 c 0,0 21.39453,-54.824219 39.72656,-51.03125 z m 0,0"
         inkscape:connector-curvature="0"
         style="fill:#ff824c;fill-opacity:1"
         inkscape:export-xdpi="96"
         inkscape:export-ydpi="96" />
      <path
         id="path2345"
         d="m 92.410156,111.30078 c -8.707031,0 -15.527344,8.46875 -15.527344,19.28125 0,10.8125 6.820313,19.28125 15.527344,19.28125 8.703124,0 15.523434,-8.46875 15.523434,-19.28125 0,-10.8125 -6.82031,-19.28125 -15.523434,-19.28125 z m 0,0"
         inkscape:connector-curvature="0"
         style="fill:#433f43"
         inkscape:export-xdpi="96"
         inkscape:export-ydpi="96" />
      <path
         id="path2347"
         d="m 220.77344,111.30078 c -8.70313,0 -15.52344,8.46875 -15.52344,19.28125 0,10.8125 6.82031,19.28125 15.52344,19.28125 8.70703,0 15.52734,-8.46875 15.52734,-19.28125 0,-10.8125 -6.82031,-19.28125 -15.52734,-19.28125 z m 0,0"
         inkscape:connector-curvature="0"
         style="fill:#433f43"
         inkscape:export-xdpi="96"
         inkscape:export-ydpi="96" />
      <path
         id="path2349"
         d="m 180.08984,148.07812 c 0,-2.66406 -1.02734,-9.10546 -10.52734,-11.35546 -3.12109,-0.73829 -7,-1.05469 -12.96875,-1.05469 -5.97656,0 -9.85156,0.3164 -12.96875,1.05469 -9.50391,2.25 -10.53125,8.6914 -10.53125,11.35546 0,7.27344 6.91797,14.03516 15.85156,16.59766 v 17.14844 c 0,4.22265 3.42188,7.64844 7.64844,7.64844 4.22266,0 7.64844,-3.42579 7.64844,-7.64844 v -17.14844 c 8.92968,-2.5625 15.84765,-9.32422 15.84765,-16.59766 z m 0,0"
         inkscape:connector-curvature="0"
         style="fill:#dd8858"
         inkscape:export-xdpi="96"
         inkscape:export-ydpi="96" />
      <circle
         style="opacity:1;fill:#ffffff;fill-opacity:1;stroke:none;stroke-width:35.63064194;stroke-miterlimit:4;stroke-dasharray:none;stroke-opacity:1"
         id="path2495"
         cx="95.742981"
         cy="120.15252"
         r="8.7838564"
         inkscape:export-xdpi="96"
         inkscape:export-ydpi="96" />
      <circle
         r="8.7838564"
         cy="120.15252"
         cx="218.82408"
         id="circle2497"
         style="opacity:1;fill:#ffffff;fill-opacity:1;stroke:none;stroke-width:35.63064194;stroke-miterlimit:4;stroke-dasharray:none;stroke-opacity:1"
         inkscape:export-xdpi="96"
         inkscape:export-ydpi="96" />
    </g>
    <text
       xml:space="preserve"
       style="font-style:normal;font-weight:normal;font-size:10.58333302px;line-height:1.25;font-family:sans-serif;letter-spacing:0px;word-spacing:0px;fill:#000000;fill-opacity:1;stroke:none;stroke-width:0.26458332"
       x="-464.24716"
       y="-90.273544"
       id="text2395"><tspan
         sodipodi:role="line"
         id="tspan2393"
         x="-464.24716"
         y="-80.61805"
         style="stroke-width:0.26458332"></tspan></text>
    <g
       id="g2421"
       transform="matrix(0.12756327,0,0,0.12630456,108.47975,61.803221)"
       inkscape:export-xdpi="96"
       inkscape:export-ydpi="96">
      <path
         id="path2401"
         d="M 380.3125,47.75 C 359.16797,21.730469 334.39062,11.34375 306.66406,16.886719 285.62109,21.089844 270.80078,33.003906 270.65234,33.125 c -3.20703,2.605469 -7.91797,2.125 -10.53125,-1.082031 -2.60937,-3.203125 -2.125,-7.917969 1.07813,-10.527344 0.72265,-0.585937 17.88672,-14.386719 42.53125,-19.308594 23.10156,-4.617187 57.15625,-2.097656 88.19922,36.101563 21.20703,26.097656 49.8789,40.484375 71.34375,35.792968 16.21484,-3.542968 27.96875,-17.765624 33.99218,-41.136718 1.03125,-4.003906 5.11719,-6.410156 9.11719,-5.378906 4,1.03125 6.41016,5.113281 5.37891,9.117187 C 492.98047,109.57031 424.59766,102.24219 380.3125,47.75 Z m 0,0"
         inkscape:connector-curvature="0"
         style="fill:#f45858" />
      <path
         id="path2403"
         d="m 417.07422,224.58594 c 0,112.80859 -91.44922,204.25781 -204.25781,204.25781 -112.8086,0 -204.257816,-91.44922 -204.257816,-204.25781 0,-112.8086 91.449216,-204.257815 204.257816,-204.257815 112.80859,0 204.25781,91.449215 204.25781,204.257815 z m 0,0"
         inkscape:connector-curvature="0"
         style="fill:#f45858" />
      <path
         id="path2405"
         d="M 35.921875,224.58594 C 35.921875,116.37891 120.07031,27.835938 226.5,20.796875 107.98828,12.957031 8.558594,106.85156 8.558594,224.58594 c 0,117.64062 99.339846,211.63672 217.937496,203.79297 C 120.07031,421.33594 35.921875,332.79687 35.921875,224.58594 Z m 0,0"
         inkscape:connector-curvature="0"
         style="fill:#e84949" />
      <path
         id="path2407"
         d="m 409.67578,302.56641 c 0.70703,-1.34375 12.39453,-29.51954 14.50391,-65.38672 C 430.1875,137.15234 364.69922,46.097656 267.86719,20.089844 102.10156,-24.433594 -40.378906,136.75781 10.445312,286.97266 68.488281,475.47656 335.26562,489.75391 409.67578,302.56641 Z m -14.03906,-5.29297 c -4.6875,11.78125 -10.47656,23.03125 -17.32422,33.64843 -0.16016,-23.66406 -4.08984,-46.86718 -11.69141,-69.05078 7.27344,-13.3125 13.20703,-27.42578 17.63672,-42.14062 8.61328,24.79687 12.45703,50.92187 11.37891,77.54297 z m -202.41797,10.125 C 186.08984,295.63672 180.90234,283.85156 177.11719,271.51953 262.83594,243.29297 326.29687,162.02734 326.60937,64.136719 332.125,68.058594 337.42578,72.269531 342.5,76.726562 359.44922,181.64844 294.57031,281.55859 193.21875,307.39844 Z M 173.94141,189.47656 c 23.97265,5.51563 46.39843,15.23438 66.86328,28.96875 -19.47266,16.88281 -42.25,30.14453 -67.42969,38.5586 -4.48047,-21.58594 -4.60156,-44.625 0.56641,-67.52735 z m 78.0664,18.48438 c -22.34765,-15.46485 -47.69531,-26.71875 -74.07422,-32.91016 4.85938,-14.66016 11.54297,-28.43359 20.73047,-41.67578 30.00781,5.6875 58.51563,18.21484 83.08594,36.52344 -8.39453,13.82031 -18.38281,26.60547 -29.74219,38.0625 z m 56.3711,-108.207034 c -13.5625,-8.855468 -27.95704,-16.179687 -43.03516,-21.902344 14.68359,-6.609374 30.28125,-10.960937 46.29687,-12.878906 -0.0898,11.800782 -1.21093,23.425782 -3.26171,34.78125 z M 289.10156,156.75 c -23.98437,-17.53906 -51.37109,-30.01562 -80.25,-36.55078 10.98438,-12.80469 23.9336,-23.875001 38.375,-32.742189 20.5625,6.316407 39.92578,15.707029 57.67188,27.984379 -3.79297,14.38671 -9.10547,28.23437 -15.79688,41.30859 z m -87.02734,163.76562 c 98.21484,-27.66796 165.17969,-122.24609 157.46094,-226.898432 5.08593,5.691406 9.85156,11.679692 14.25781,17.937502 23.33594,105.78125 -39.16797,210.85156 -140.65235,240.46093 -11.73437,-9.03125 -22.19531,-19.64453 -31.0664,-31.5 z m 154.16015,-41.51953 c 6.44141,23.6211 8.57422,48.30078 6.12891,73.32813 -5.36328,6.26953 -11.10547,12.20312 -17.20312,17.7539 -1.58985,-20.82812 -6.13282,-41.14843 -13.56641,-60.63281 9.10156,-9.38672 17.34766,-19.58203 24.64062,-30.44922 z m -36.46484,41.76172 c 6.80469,19.67188 10.49219,40.20703 10.99219,61.23828 -1.48828,1.1211 -2.9961,2.21875 -4.52344,3.29688 -28.19141,-0.79688 -54.62109,-8.96094 -77.4375,-22.61328 26.5625,-9.39844 50.53125,-23.78125 70.96875,-41.92188 z m 87.95703,-69.32812 C 403.00391,222.96875 392.17969,197.5 390.1875,194.85937 c 2.94922,-16.59375 3.875,-32.5039 3.18359,-48.40625 14.36719,33.13672 19.26563,69.3086 14.35547,104.97657 z M 304.84766,50.707031 C 165.58594,70.8125 103.02734,244.11719 205.80469,348.10937 c 27.07422,27.39844 61.63672,44.8086 99.11718,50.31641 -12.37109,6.58203 -25.51562,11.87891 -39.26953,15.71875 -88.57812,-19.20703 -152.66797,-98.62891 -152.66797,-189.55859 0,-90.92969 64.08985,-170.355471 152.66797,-189.558596 13.72657,3.832031 26.84766,9.117187 39.19532,15.679687 z M 90.609375,84.054688 C 79.628906,89.144531 69.136719,95.058594 59.191406,101.78125 76.5,80.167969 98.257812,62.269531 123.07422,49.5 110.40625,60.484375 100.26172,71.566406 90.609375,84.054688 Z M 73.082031,110.59375 c -5.375,9.5 -10.054687,19.33594 -14.011719,29.4375 -11.46875,6.07422 -22.347656,13.14062 -32.539062,21.13672 2.199219,-6.44141 4.730469,-12.73047 7.5625,-18.85547 11.785156,-12.17578 24.832031,-22.78516 38.988281,-31.71875 z M 17.9375,251.82031 c 9.203125,4.90235 18.757812,9.11719 28.566406,12.58203 1.914063,11.14453 4.636719,22.07422 8.144532,32.73828 -10.675782,-4.80468 -20.9375,-10.55468 -30.664063,-17.1875 C 21.34375,270.96094 19.34375,261.92969 17.9375,251.82031 Z m 26.316406,-4.23437 C 34.585938,243.72656 25.214844,239.07812 16.261719,233.69922 15.980469,227.51172 16,223.05469 16.164062,218.07031 c 8.925782,-5.93359 18.300782,-11.16015 28.027344,-15.60156 -1.421875,14.95312 -1.40625,30.03125 0.0625,45.11719 z m 2.238282,-62.38672 c -9.941407,4.03125 -19.589844,8.80859 -28.847657,14.27734 0.597657,-4.66015 1.25,-8.53906 2.007813,-12.43359 9.878906,-9.58985 20.648437,-18.125 32.1875,-25.49219 -2.1875,7.75781 -3.90625,15.24609 -5.347656,23.64844 z m -14.3125,117.39062 c 9.558593,5.32422 19.5,9.90625 29.742187,13.70313 4.511719,10.4414 9.8125,20.57422 15.894531,30.33594 C 66.3125,341.22266 55.320312,334.71484 44.957031,327.16016 40.144531,319.31641 35.875,311.10547 32.179688,302.58984 Z m 37.261718,56.61719 c 7.886719,3.80469 16.003906,7.12109 24.320313,9.9375 8.843751,11.07031 18.660151,21.28906 29.324221,30.53516 C 102.94141,389.31641 84.816406,375.57031 69.441406,359.20703 Z M 177.17578,418.11719 C 18.082031,337.6875 18.90625,111.10156 177.19922,31.050781 195.14062,27.753906 214.30469,26.875 233.63672,28.914062 98.828125,79.59375 55.128906,247.47656 145.58984,357.32422 c 23.41016,28.42187 53.95703,50.11719 88.04688,62.93359 -19.40235,2.05078 -38.50781,1.15235 -56.46094,-2.14062 z m 0,0"
         inkscape:connector-curvature="0"
         style="fill:#dd4040" />
    </g>
    <ellipse
       style="opacity:0.5;fill:#ffffff;fill-opacity:1;stroke:none;stroke-width:3.96875;stroke-miterlimit:4;stroke-dasharray:none;stroke-opacity:1"
       id="path2423"
       cx="-238.0583"
       cy="15.70074"
       r="3.0735996" />
    <ellipse
       cy="15.70074"
       cx="-193.15703"
       id="circle2427"
       style="opacity:0.5;fill:#ffffff;fill-opacity:1;stroke:none;stroke-width:3.96875;stroke-miterlimit:4;stroke-dasharray:none;stroke-opacity:1"
       r="3.0735996" />
    <text
       xml:space="preserve"
       style="font-style:normal;font-variant:normal;font-weight:normal;font-stretch:normal;font-size:41.06284332px;line-height:1.25;font-family:'After Night';-inkscape-font-specification:'After Night, Normal';font-variant-ligatures:normal;font-variant-caps:normal;font-variant-numeric:normal;font-feature-settings:normal;text-align:start;letter-spacing:0px;word-spacing:0px;writing-mode:lr-tb;text-anchor:start;fill:#000000;fill-opacity:1;stroke:none;stroke-width:1.02657127"
       x="115.65785"
       y="105.57937"
       id="text2431"
       transform="scale(1.0049705,0.99505407)"
       inkscape:export-xdpi="96"
       inkscape:export-ydpi="96"><tspan
         sodipodi:role="line"
         id="tspan2429"
         x="115.65785"
         y="105.57937"
         style="font-style:normal;font-variant:normal;font-weight:normal;font-stretch:normal;font-size:41.06284332px;font-family:'After Night';-inkscape-font-specification:'After Night, Normal';font-variant-ligatures:normal;font-variant-caps:normal;font-variant-numeric:normal;font-feature-settings:normal;text-align:start;writing-mode:lr-tb;text-anchor:start;stroke-width:1.02657127">F</tspan></text>
    <path
       style="color:#000000;font-style:normal;font-variant:normal;font-weight:normal;font-stretch:normal;font-size:medium;line-height:normal;font-family:sans-serif;font-variant-ligatures:normal;font-variant-position:normal;font-variant-caps:normal;font-variant-numeric:normal;font-variant-alternates:normal;font-feature-settings:normal;text-indent:0;text-align:start;text-decoration:none;text-decoration-line:none;text-decoration-style:solid;text-decoration-color:#000000;letter-spacing:normal;word-spacing:normal;text-transform:none;writing-mode:lr-tb;direction:ltr;text-orientation:mixed;dominant-baseline:auto;baseline-shift:baseline;text-anchor:start;white-space:normal;shape-padding:0;clip-rule:nonzero;display:inline;overflow:visible;visibility:visible;opacity:1;isolation:auto;mix-blend-mode:normal;color-interpolation:sRGB;color-interpolation-filters:linearRGB;solid-color:#000000;solid-opacity:1;vector-effect:none;fill:none;fill-opacity:1;fill-rule:nonzero;stroke:#ffab40;stroke-width:17.0623436;stroke-linecap:butt;stroke-linejoin:miter;stroke-miterlimit:4;stroke-dasharray:none;stroke-dashoffset:0;stroke-opacity:1;color-rendering:auto;image-rendering:auto;shape-rendering:auto;text-rendering:auto;enable-background:accumulate"
       d="M 135.4495,34.597865 C 91.339922,34.684376 48.404605,48.69745 12.888898,74.598387 l -3.0918888,2.25488 -0.3596077,3.785376 C 8.8714874,86.598994 8.5691265,92.581076 8.5311676,98.567582 v 0.02993 0.02994 C 8.5959756,179.75918 56.954111,253.29052 131.866,286.16517 l 3.46747,1.52138 3.46946,-1.51666 C 213.8182,253.37385 262.29114,179.82568 262.40216,98.632354 v -0.03986 l -3.8e-4,-0.03986 c -0.0486,-6.001466 -0.36285,-11.997774 -0.9421,-17.971972 L 261.09327,76.803978 258.00733,74.555 C 222.49624,48.67669 179.57487,34.679487 135.48259,34.597888 h -0.0162 z"
       id="path2483"
       inkscape:connector-curvature="0"
       inkscape:export-xdpi="96"
       inkscape:export-ydpi="96" />
  </g>
</svg>
